<?xml version="1.0" encoding="UTF-8"?>
<svg id="Layer_2" data-name="Layer 2" xmlns="http://www.w3.org/2000/svg" viewBox="0 0 298.47 63.81">
  <g id="Layer_1-2" data-name="Layer 1">
    <g>
      <polygon points="36.16 22.75 44.98 .64 49.61 .73 35.98 34.02 24.84 7.07 13.53 34.01 0 .77 4.66 .64 13.58 22.76 22.58 .65 27.11 .64 36.16 22.75"/>
      <path d="M215.25,33.44c-9.15.53-17.12-5.09-18.34-14.03-.72-5.28.65-10.22,4.16-14.04C204.43,1.73,209.22,0,214.52,0c9.39,0,16.87,6.88,17.3,15.87.45,9.51-6.58,16.99-16.57,17.57ZM214.82,29.1c7.27-.3,12.34-6.05,12.15-12.76s-5.58-11.73-12.38-11.88c-7.42-.16-13,5.23-13.02,12.34s5.58,12.62,13.25,12.31Z"/>
      <path d="M180.37,33.12c-3.6-4.65-8.28-16.3-14.97-13.95l-.07,13.94-4.66-.09V.59c6.88.06,17.14-1.57,18.88,7.02.83,4.09-.89,8.11-4.89,9.99,2.23,2.17,3.91,4.4,5.56,6.9l5.65,8.59-5.49.04ZM171.63,14.29c2.27-.58,3.18-2.84,3.21-4.59s-.8-3.74-2.67-4.44c-2.1-.79-4.49-.74-6.77-.64l.05,10.13c2.05.07,4.08.08,6.17-.46Z"/>
      <path d="M78.48,23.48l-13.81-.04-4.06,9.53c-1.42.15-2.96.14-4.82-.02L69.51.8c.87-.57,3.07-.68,3.72.02l14.28,31.99c-1.48.4-3.33.41-4.81.09l-4.22-9.42ZM76.55,19.28l-5.24-11.73-4.75,11.7,10,.03Z"/>
      <polygon points="297.65 18.74 284.21 18.78 284.19 28.84 298.4 28.9 298.47 33.14 279.5 33.13 279.49 .62 298.06 .56 298.04 4.73 284.2 4.81 284.21 14.5 297.56 14.59 297.65 18.74"/>
      <path d="M256.32,33.37c-3.88.35-7.18-.63-10.21-2.75-.1-1.81-.08-3.76.02-5.79,2.97,2.95,5.82,4.91,9.95,4.27,1.72-.27,3.37-1.61,3.75-3.26.31-1.37-.44-3.65-1.85-4.61l-8.4-5.68c-3.07-2.08-4.34-5.43-3.54-9.01.66-2.96,3.25-5.6,6.76-6.21s7.16-.19,10.1,1.98l-.03,5c-3.4-2.33-6.38-3.92-10.26-2.48-1.02.38-2.25,1.78-2.39,2.7-.95,6.4,12.56,6.34,13.97,15.63.77,5.07-2.42,9.72-7.87,10.22Z"/>
      <polygon points="135.41 32.97 130.68 33.05 130.66 4.69 119.4 4.64 119.43 .57 146.71 .6 146.64 4.65 135.42 4.69 135.41 32.97"/>
      <path d="M105.52,32.98c-1.58.11-2.98.12-4.7.06V.8c1.41-.19,2.95-.21,4.69-.1v32.28Z"/>
      <path d="M178.96,62.69c0,.4-1.44,1.1-1.85.65l-8.45-9.43-.15,8.27c0,.38-.29,1.13-.39,1.38-.15.37-1.39-.45-1.39-.92v-11.53c.01-.5,1.45-.65,1.76-.3l8.46,9.52.21-9.35c.01-.48,1.72-.51,1.72.02l.07,11.7Z"/>
      <path d="M74.82,60.61l2.08,2.64c-1.19.58-2.44-.16-3.44-.92-1.96,1.09-4.47,2.25-6.7.52-.74-.57-1.29-2.43-.92-3.45.32-.89,1.59-1.97,2.46-2.79-.69-1.2-1.57-2.84-1.27-3.88.45-1.55,2.46-2.51,4.19-1.97,1.19.37,2.29,1.56,2.27,2.82-.02,1.05-.85,2.1-2.03,3.36.28.44,1.48,1.76,2.08,2.35.76-1.28.75-2.59,2.66-2.14l-1.39,3.47ZM71.04,55.05c.49-.33.91-1.83.49-2.23-.5-.47-1.66-.56-2.27-.22-.52.29-.48,1.68-.07,2.11l.81.86c.11.11.58-.21,1.04-.52ZM72.24,60.88l-2.46-2.76c-1.62.36-2.8,2.19-1.6,3.42,1.06,1.09,3.03.48,4.06-.66Z"/>
      <path d="M139.5,63.17c-3.13,2.35-3.54-5.61-7.82-5.33l-.07,4.98c0,.58-1.91.9-1.92.39l-.06-12.63c3.08-.21,7.2-.43,7.71,3.04.19,1.28-.73,2.74-1.73,3.75l3.89,5.8ZM135.28,53.75c-.18-1.36-2.61-2.15-3.58-1.32l.04,3.72c2.14.33,3.81-.39,3.54-2.4Z"/>
      <path d="M216.64,63.27c-3.43,1.86-3.15-5.19-8.01-5.59v5.44c-.01.26-1.43.66-1.51.41s-.36-.99-.36-1.26v-11.59c1.65-.19,3.34-.23,5.08.05,1.49.24,2.57,1.99,2.6,3.29.04,1.44-.96,2.86-2.06,3.2,1.6,1.98,2.93,3.94,4.25,6.04ZM212.39,54.32c.08-.55-.46-1.86-.98-1.91l-2.62-.25-.1,3.99c1.74.16,3.43.16,3.7-1.83Z"/>
      <path d="M117.02,59.8l-5.5-.07-1.4,3.15c-.14.32-1.14.7-1.48.63-1.14-.21,4.24-12.09,5.57-13.61.71.78,8.1,15.52,5.32,13.77-.22-.14-.97-.55-1.08-.79l-1.42-3.08ZM116.1,57.95l-2.01-5-1.74,4.99h3.75Z"/>
      <path d="M95.14,58.07v5.01c0,.45-1.87.46-1.87-.03l-.04-12.42,4.36-.13c1.84-.06,3.51,1.19,3.85,2.7.37,1.63-.15,3.94-2.14,4.34-1.21.24-2.52.35-4.16.53ZM99.56,53.96c-.65-2.32-2.79-1.85-4.49-1.6l.22,3.41c.05.73,2.23.53,2.94.34.63-.17,1.51-1.48,1.32-2.14Z"/>
      <path d="M195.85,57.79l-4.52.08-.03,4.07,4.3.08,1.18.02c.33,0,.12,1.31-.25,1.33l-7.03.25-.07-13.11,7.03.06c.51,0,.17,1.62-.32,1.62l-4.81.03v3.82s4.68.16,4.68.16c.21,0,.67.52.81.68s-.68.9-.96.91Z"/>
      <path d="M228.08,63.63c-.7-.14-1.73-.47-2.15-.71-.5-.28-.57-1.68-.47-2.33,1.18.65,2.33,1.34,3.63,1.47.53.05,1.61-.67,1.76-1.14.98-3.1-6.91-3.71-5.39-8.1,1.02-2.95,3.82-2.72,6.34-1.86.4.14.35,1.59.19,1.9l-2.59-.78c-.66-.2-2.3.59-2.24,1.34.23,2.99,6.56,3,5.48,7.65-.41,1.76-2.18,3.04-4.56,2.57Z"/>
      <path d="M152.8,63.09c0,.41-1.89.47-1.9-.08l-.04-10.74-3.79-.1c-.41-.01-.73-1.6-.27-1.61l9.61-.05c.38,0,1.15.5,1,.73s-.69.91-.95.92l-3.56.1-.11,10.84Z"/>
    </g>
  </g>
</svg>