<?xml version="1.0" encoding="UTF-8"?>
<svg id="Layer_2" data-name="Layer 2" xmlns="http://www.w3.org/2000/svg" viewBox="0 0 133.74 133.77">
  <g id="Layer_1-2" data-name="Layer 1">
    <g>
      <path d="M68.68,133.77h-3.75c.17-.2-1.93-.13-2.51-.17l-1.38-.09c-16.49-1.05-31.78-8.89-43.05-20.96C7.71,101.55,1.39,87.36.23,72.33c-.07-.95-.05-3.04-.23-3.23v-5.76c.17-.07.16-1.79.23-2.55C1.81,42.94,10.65,26.46,24.51,15.12,35.43,6.19,48.92.88,63.04.14l1.52-.08c1.55-.08,3.1-.08,4.65,0l1.5.08c16.86.89,32.7,8.28,44.37,20.43,11.43,11.91,17.75,27.71,18.56,44.23l.09,1.89c.03.61.03,1.26,0,1.87l-.1,2.03c-1.58,33.05-28.86,60.84-61.06,62.92l-1.35.09c-.88.06-1.76-.06-2.53.17ZM110.36,106.35c9.94-10.96,15.44-25.38,15.17-40.18s-5.47-27.74-14.92-38.33C89.39,4.07,53.06,1.6,28.78,22.23c-12.91,10.97-20.55,27.11-20.68,44.01-.15,19.91,9.52,38.4,26.04,49.51,24.1,16.19,56.6,12.23,76.21-9.4Z"/>
      <path d="M61.23,65.83c3.56,2.02,5.65,5.76,5.73,9.96.09,5.08-2.48,9.61-7,11.94-2.15,1.05-4.44,1.79-6.93,1.8l-19.49.04v-45.52s18.93.04,18.93.04c2.73,0,5.23.92,7.48,2.27,3.34,2.14,5.31,5.54,5.63,9.48.3,3.82-1.12,7.6-4.35,10.01ZM54.15,59.85c1.15-1.85.88-4.2-.68-5.66-1.02-.8-2.23-1.22-3.55-1.23l-6.13-.02v8.82s6.41-.04,6.41-.04c1.57,0,2.95-.64,3.95-1.88ZM54.11,77.88c1.17-1.83.95-4.19-.57-5.68-1.02-.85-2.27-1.28-3.62-1.29l-6.13-.03v8.87s6.32-.04,6.32-.04c1.57,0,2.96-.59,3.99-1.83Z"/>
      <polygon points="91.65 89.4 80.71 89.41 80.71 54.48 70.48 54.47 70.47 43.96 102.32 43.96 102.33 54.47 91.64 54.48 91.65 89.4"/>
    </g>
  </g>
</svg>