<?xml version="1.0" encoding="UTF-8"?>
<svg id="Layer_2" data-name="Layer 2" xmlns="http://www.w3.org/2000/svg" viewBox="0 0 244.26 57.56">
  <defs>
    <style>
      .cls-1 {
        fill: #fff;
      }
    </style>
  </defs>
  <g id="Layer_1-2" data-name="Layer 1">
    <g>
      <path class="cls-1" d="M212.35,53.17c5.37-3.12,8.29-8.47,7.9-14.49-1.23-19.25-33.23-15.08-33.83-21.41-.31-3.26,8.35-4.6,13.25-2.2,1.55.76,2.91,2.76,4.05,4.35l15.2-5.84c-1.48-5.52-5.29-9.51-10.73-11.31-13.27-4.38-39.58-3.81-40.21,14.33-.78,22.42,34.97,16.42,33.64,24.01-.82,4.7-17.91,5.08-22.71-2.85l-14.9,5.83c5.49,16.12,35.92,16.79,48.33,9.58ZM244.26,55.6l-.03-55.09-18.73,7.03v48.1s18.76-.04,18.76-.04ZM52.26,18.29c-.34-6.29-3.03-11.4-8.7-14.29-3.75-1.61-7.97-2.56-12.25-2.55l-31.31.04v54.12s18.72.05,18.72.05l.42-10.39c14.46-6.46,34.16-8.03,33.12-26.98ZM99.07,34.89l-.17-13.3-22.77-.02.16-6.31,28.53-.08-.04-13.71h-47.44s-.01,54.18-.01,54.18h47.45s.03-13.92.03-13.92l-28.66-.05.13-6.59,22.79-.21ZM151.72,37.57c4.13-1.62,8.06-4.48,10.32-7.94,4.14-6.33,3.6-14.24.03-20.62-3.67-4.14-8.77-7.32-14.67-7.35l-34.73-.17.05,54.18,18.66-.03.08-10.13,20.26-7.94Z"/>
      <path d="M212.35,53.17c-12.41,7.21-42.84,6.54-48.33-9.58l14.9-5.83c4.8,7.93,21.89,7.55,22.71,2.85,1.33-7.59-34.42-1.59-33.64-24.01.63-18.13,26.94-18.71,40.21-14.33,5.44,1.8,9.25,5.79,10.73,11.31l-15.2,5.84c-1.14-1.59-2.49-3.58-4.05-4.35-4.91-2.41-13.56-1.07-13.25,2.2.6,6.34,32.59,2.16,33.83,21.41.39,6.02-2.53,11.37-7.9,14.49Z"/>
      <polygon points="99.07 34.89 76.28 35.1 76.15 41.68 104.81 41.74 104.78 55.65 57.33 55.66 57.34 1.48 104.78 1.47 104.82 15.18 76.29 15.26 76.13 21.57 98.9 21.59 99.07 34.89"/>
      <path d="M52.26,18.29c1.03,18.95-18.66,20.52-33.12,26.98l-.42,10.39L0,55.62V1.49s31.31-.04,31.31-.04c4.28,0,8.5.95,12.25,2.55,5.67,2.89,8.36,8,8.7,14.29ZM32.59,18.81c-.53-2.16-3.28-3.67-5.94-3.62l-7.74.12.05,15.51c5.93-2.16,15.53-4.26,13.63-12.01Z"/>
      <path d="M151.72,37.57l-20.26,7.94-.08,10.13-18.66.03-.05-54.18,34.73.17c5.9.03,11.01,3.21,14.67,7.35,3.56,6.39,4.11,14.3-.03,20.62-2.26,3.45-6.2,6.32-10.32,7.94ZM145.28,18.79c-.46-1.64-3.13-3.52-5.3-3.52h-8.52s0,15.57,0,15.57c5.85-2.03,15.9-4.6,13.82-12.05Z"/>
      <polygon points="244.26 55.6 225.52 55.64 225.51 7.54 244.23 .51 244.26 55.6"/>
    </g>
  </g>
</svg>