<?xml version="1.0" encoding="UTF-8"?>
<svg id="Layer_2" data-name="Layer 2" xmlns="http://www.w3.org/2000/svg" viewBox="0 0 206.56 58.27">
  <g id="Layer_1-2" data-name="Layer 1">
    <g>
      <path d="M39.28,57.3v-27.02s-13.72,13.58-13.72,13.58l-13.7-13.57v27.01s-11.86,0-11.86,0V.81c.85-.05,1.65.3,2.28.93l23.28,23.08L48.89,1.7c.61-.6,1.39-.93,2.23-.88v56.48s-11.85,0-11.85,0Z"/>
      <path d="M159.29,57.28l-15.12.02-2.15-8.42c-.58-2.26-1.33-4.36-2.23-6.5-1.18-2.81-2.89-5.14-6.02-5.81-.87-.15-1.71-.25-2.6-.25h-4.3s0,20.97,0,20.97h-13.58s0-56.35,0-56.35h19.51c2.49.02,4.82.26,7.23.72,5.96,1.22,11.33,5.14,13.04,11.16.94,3.3.91,6.77-.14,10.04-1.16,3.61-3.63,6.47-6.89,8.44,4.08,2.5,6.26,6.59,7.98,10.86l5.27,15.11ZM139.74,16.4c-.56-2.45-2.4-4.25-4.83-4.89-1.17-.26-2.31-.44-3.53-.44l-4.52-.03v15.02s4.64-.03,4.64-.03c1.15,0,2.23-.19,3.34-.43,4.26-1.11,5.81-5.18,4.89-9.19Z"/>
      <path d="M197.46,55.44c-5.2,2.78-11.47,3.22-17.27,2.55-6.75-.84-12.85-3.54-17.27-8.87l7.76-8.05c1.37,1.65,2.84,3.04,4.63,4.18,3.18,2.04,6.9,2.88,10.65,2.41,1.24-.2,2.36-.52,3.42-1.18,1.72-1.07,2.76-2.97,2.51-5.02-.33-2.75-2.9-4.29-5.21-5.28-5.58-2.37-11.36-3.21-16.37-7.12-4.33-3.37-6.4-8.73-5.44-14.17.95-5.34,4.42-9.9,9.21-12.43,2.32-1.23,4.75-1.92,7.37-2.28,5.54-.62,11.1.28,16.13,2.69,2.51,1.23,4.76,2.78,6.72,4.84l-7.76,8.04c-3.19-3.75-7.75-5.75-12.55-5.48-1.41.13-2.7.49-3.82,1.33-1.16.88-1.84,2.2-1.9,3.59-.11,2.9,2.3,4.47,4.75,5.5,5.23,2.21,10.56,3.15,15.62,6.24s8.51,8.76,7.82,15.06c-.31,2.83-1.22,5.47-2.77,7.84s-3.71,4.24-6.24,5.59Z"/>
      <path d="M90.71,50.81h-19.24s-2.67,6.49-2.67,6.49h-12.75s9.62-21.92,9.62-21.92L80.61,1.16c.31-.72.94-1.06,1.6-1.06s1.29.34,1.6,1.06l15.3,35.06,9.26,21.06-14.99.02-2.68-6.5ZM86.64,40.91l-5.57-13.52-5.55,13.51h11.11Z"/>
    </g>
  </g>
</svg>