<?xml version="1.0" encoding="UTF-8"?>
<svg id="Layer_2" data-name="Layer 2" xmlns="http://www.w3.org/2000/svg" viewBox="0 0 205.54 36.01">
  <defs>
    <style>
      .cls-1 {
        fill: #fff;
      }
    </style>
  </defs>
  <g id="Layer_1-2" data-name="Layer 1">
    <g>
      <path class="cls-1" d="M29.95,35.06l.1-20.04c.02-3.33,2.67-5.39,5.69-5.43,2.73-.03,4.73,1.72,4.75,4.66l.11,20.82,9.73-.03-.15-24.77c-.03-5.41-4.19-9.07-9.11-9.85-5.29-.85-9.65,1-13.23,5.33C25.61,1.95,22.19.24,18.38.23s-7.15,1.55-9.25,5.1l-.16-4.47L0,.9v34.11s9.48.08,9.48.08l.1-19.89c.02-3.46,2.69-5.68,5.96-5.6,2.52.06,4.47,1.78,4.49,4.55l.12,20.9,9.81.02ZM72.24.3c-10.22,1.84-16.37,11.55-14.52,21.05,1.9,9.8,11.02,16.01,20.62,14.4,9.98-1.67,16.56-10.98,14.8-20.83-1.71-9.6-10.77-16.45-20.91-14.62ZM110.43,15.21c.02-3.73,3.06-5.73,6.25-5.61,2.51.09,4.48,1.78,4.5,4.56l.14,20.92,9.94-.02-.11-24.4c-.03-5.99-4.84-10.08-10.41-10.39-4.36-.24-7.92,1.08-10.62,4.62l-.15-4.01-9.48.02v34.19s9.83-.04,9.83-.04l.1-19.84ZM184.37.29c-10.24,1.84-16.38,11.53-14.54,21.06,1.9,9.81,10.99,16.03,20.62,14.4,9.98-1.68,16.55-10.96,14.8-20.83S194.5-1.53,184.37.29ZM164.63,35.06v-8.8s-12.5-.11-12.5-.11l12.28-17.2-.1-8.08h-25.22s0,8.85,0,8.85l13.83.18-13.79,17.94-.04,7.24h25.55Z"/>
      <path d="M29.95,35.06l-9.81-.02-.12-20.9c-.02-2.76-1.97-4.48-4.49-4.55-3.27-.08-5.94,2.13-5.96,5.6l-.1,19.89-9.48-.08V.9s8.97-.03,8.97-.03l.16,4.47C11.23,1.78,14.67.22,18.38.23s7.23,1.72,9.45,5.52C31.41,1.42,35.77-.43,41.07.42c4.92.79,9.08,4.45,9.11,9.85l.15,24.77-9.73.03-.11-20.82c-.02-2.93-2.01-4.69-4.75-4.66-3.01.04-5.67,2.1-5.69,5.43l-.1,20.04Z"/>
      <path d="M72.24.3c10.14-1.83,19.19,5.02,20.91,14.62,1.75,9.85-4.83,19.16-14.8,20.83-9.6,1.61-18.72-4.6-20.62-14.4-1.84-9.5,4.3-19.21,14.52-21.05ZM83.34,19.2c.64-4.72-2.51-9.03-7.12-9.53-5.35-.58-9.35,4.07-8.82,9.28.43,4.2,3.77,7.31,7.74,7.44,3.97.13,7.6-2.77,8.2-7.19Z"/>
      <path d="M184.37.29c10.13-1.82,19.19,5.03,20.89,14.64s-4.83,19.14-14.8,20.83c-9.63,1.62-18.72-4.59-20.62-14.4-1.84-9.53,4.29-19.22,14.54-21.06ZM195.49,18.29c.14-5.05-3.72-8.82-8.25-8.69-4.37.12-7.83,3.84-7.81,8.47s3.48,8.17,7.8,8.31,8.12-3.26,8.25-8.1Z"/>
      <path d="M110.43,15.21l-.1,19.84-9.82.04V.89s9.46-.02,9.46-.02l.15,4.01C112.83,1.34,116.38.02,120.74.26c5.57.31,10.38,4.4,10.41,10.39l.11,24.4-9.94.02-.14-20.92c-.02-2.78-1.99-4.47-4.5-4.56-3.2-.11-6.23,1.89-6.25,5.61Z"/>
      <polygon points="164.63 35.06 139.08 35.08 139.13 27.84 152.91 9.9 139.08 9.72 139.09 .88 164.31 .87 164.41 8.95 152.13 26.15 164.62 26.27 164.63 35.06"/>
    </g>
  </g>
</svg>