<?xml version="1.0" encoding="UTF-8"?>
<svg id="Layer_2" data-name="Layer 2" xmlns="http://www.w3.org/2000/svg" viewBox="0 0 142.59 85.42">
  <g id="Layer_1-2" data-name="Layer 1">
    <g>
      <path d="M142.59,21.98v.53c-.11.36-.22.72-.4,1.1l-27.95,60.22c-.42.91-1.34,1.54-2.35,1.55l-9.29.03c-.22,0-.48-.09-.67-.15-.73-.23-1.1-.88-1.08-1.65.07-.41.19-.79.38-1.19l9.53-20.16-21.03-31.09c-.06-.07-.12-.11-.18-.1l-10.63,11.46,14.61,21.64c.34.51.37,1.12.27,1.67-.23.89-1.18,1.24-2.02,1.24h-9.9c-.76,0-1.39-.29-1.95-.76-.33-.34-.63-.66-.91-1.07l-16.15-23.55,18.15-19.49c.6-.65,1.34-1.09,2.15-1.38.67-.17,1.3-.26,2-.26h10.31c.58,0,1.09.04,1.67.15,1,.19,2,.73,2.58,1.64l16.72,26.3.35.55s.07.08.08.06l.07-.14,12.1-26.85c.52-1.16,1.53-1.72,2.78-1.72h8.48c1.18,0,1.95.24,2.26,1.39Z"/>
      <path d="M60.42,0c.84,0,1.59.86,1.59,1.69v60.78c0,.7-.13,1.35-.35,1.98-.67,1.9-2.47,2.65-4.37,2.64l-7.37-.02c-.98,0-1.74-.77-1.74-1.75V4.65c0-1.7.63-3.29,2.16-4.09.62-.33,1.28-.43,1.94-.56h8.14Z"/>
      <path d="M26.29,67.09H2.62c-.96,0-1.75-.71-1.75-1.68l-.02-4.88c0-1.93.77-3.72,2.68-4.38.63-.22,1.25-.33,1.95-.33h21.96c.73,0,1.42-.16,2.03-.45.66-.31.99-.92.97-1.62-.02-.81-.42-1.47-1.13-1.87-.64-.36-1.33-.61-2.08-.78l-14.54-3.26c-1.69-.38-3.3-.89-4.88-1.59-3.08-1.37-5.64-3.46-6.92-6.64-1.18-2.94-1.13-6.7-.12-9.69,1.49-4.45,5.08-7.35,9.54-8.58,1.87-.51,3.78-.77,5.73-.77h24.47c.97,0,1.74.72,1.75,1.69l.02,4.93c0,.75-.12,1.46-.4,2.14-.71,1.79-2.43,2.5-4.29,2.5h-21.07c-.7,0-1.35.16-1.94.42-.71.31-1.08.96-1.04,1.71s.42,1.38,1.09,1.77c.63.36,1.31.63,2.06.79l14.54,3.26c1.66.37,3.23.86,4.77,1.54,3.66,1.6,6.49,4.22,7.5,8.2.57,2.24.65,4.59.2,6.86-.56,2.88-2.12,5.39-4.44,7.15-3.6,2.73-8.48,3.54-12.96,3.54Z"/>
    </g>
  </g>
</svg>